<?xml version="1.0" standalone="no"?>
<!DOCTYPE svg PUBLIC "-//W3C//DTD SVG 20010904//EN"
 "http://www.w3.org/TR/2001/REC-SVG-20010904/DTD/svg10.dtd">
<svg version="1.0" xmlns="http://www.w3.org/2000/svg"
 width="225.000000pt" height="225.000000pt" viewBox="0 0 225.000000 225.000000"
 preserveAspectRatio="xMidYMid meet">

<g transform="translate(0.000000,225.000000) scale(0.100000,-0.100000)"
fill="#000000" stroke="none">
<path d="M975 2239 c-366 -46 -713 -302 -870 -642 -161 -347 -130 -763 79
-1086 55 -86 187 -225 274 -290 181 -136 438 -221 667 -221 154 0 364 49 497
116 213 106 406 299 512 512 67 133 116 343 116 497 0 229 -85 486 -221 667
-65 87 -204 219 -290 274 -226 146 -493 207 -764 173z m408 -38 c410 -109 711
-408 817 -812 30 -116 38 -322 17 -444 -41 -235 -145 -434 -311 -601 -225
-225 -505 -334 -826 -321 -292 12 -540 122 -745 332 -139 143 -230 305 -287
512 -28 103 -32 379 -6 488 102 441 448 777 886 859 112 22 352 15 455 -13z"/>
<path d="M977 2163 c-8 -12 7 -128 16 -125 4 1 25 2 47 2 22 0 40 4 40 9 0 5
-18 7 -40 4 -38 -5 -40 -4 -40 21 0 23 4 26 35 26 19 0 35 4 35 9 0 5 -18 7
-40 4 -36 -5 -40 -3 -40 15 0 16 9 23 43 30 l42 10 -47 1 c-26 1 -49 -2 -51
-6z"/>
<path d="M1303 2142 c-6 -4 -16 -20 -22 -35 -21 -54 17 -94 80 -85 18 2 25 10
27 31 3 24 0 27 -25 26 -27 0 -27 -1 -6 -9 29 -12 20 -40 -12 -40 -50 0 -70
49 -37 90 14 18 25 22 45 16 15 -3 27 -13 27 -21 0 -8 5 -15 10 -15 15 0 12
16 -6 34 -16 17 -61 21 -81 8z"/>
<path d="M740 2090 c0 -6 7 -25 16 -41 8 -17 14 -32 12 -34 -2 -2 -25 9 -51
26 -52 32 -57 34 -57 18 0 -18 42 -109 51 -109 5 0 0 20 -11 45 -11 25 -17 45
-14 45 3 0 25 -13 49 -30 39 -27 65 -37 65 -26 0 2 -11 29 -25 60 -24 53 -35
68 -35 46z"/>
<path d="M1590 2003 c-16 -26 -30 -53 -30 -59 0 -6 18 -20 40 -33 22 -12 40
-19 40 -14 0 4 -14 16 -30 25 -32 18 -35 25 -21 47 8 12 13 12 36 -3 14 -9 32
-15 38 -13 7 2 -3 11 -20 21 -35 17 -38 23 -24 44 6 10 15 9 44 -8 21 -12 37
-18 37 -13 0 5 -18 19 -40 32 l-39 22 -31 -48z"/>
<path d="M945 1965 c-332 -76 -591 -336 -660 -665 -19 -91 -19 -258 0 -350 70
-334 331 -595 667 -665 101 -22 275 -19 375 5 312 75 558 321 633 633 27 114
27 291 0 407 -69 284 -286 518 -570 612 -86 28 -109 32 -240 34 -97 2 -165 -2
-205 -11z m615 -245 c-14 -4 -65 -20 -115 -35 -126 -38 -225 -86 -277 -134
l-45 -41 -29 31 c-53 55 -178 113 -364 168 l-65 19 460 0 c254 0 449 -3 435
-8z m-815 -116 c127 -36 238 -73 249 -82 70 -64 57 -181 -26 -232 -35 -21 -91
-26 -131 -11 -13 5 -86 85 -162 178 -76 92 -147 178 -158 191 -11 12 -16 22
-11 22 5 0 113 -30 239 -66z m963 14 c-24 -29 -95 -114 -156 -189 -62 -75
-123 -141 -137 -147 -84 -38 -187 19 -202 112 -6 41 11 97 38 122 17 16 444
150 488 153 7 1 -7 -23 -31 -51z m-1030 -351 c-25 -75 -24 -209 3 -289 45
-136 128 -224 277 -295 4 -1 -74 -205 -90 -235 -8 -17 -14 -15 -71 13 -34 17
-77 42 -95 56 l-33 25 35 42 35 43 -50 49 c-27 27 -60 64 -72 81 -12 18 -25
33 -30 33 -4 0 -25 -11 -47 -25 -22 -14 -42 -25 -45 -25 -9 0 -74 142 -81 177
-6 31 -6 31 49 43 l54 13 -8 36 c-5 20 -9 70 -9 112 l0 76 -50 5 c-28 3 -53 8
-57 12 -8 8 20 130 41 180 l15 35 123 -55 124 -56 -18 -51z m1150 91 c11 -35
23 -82 27 -105 l6 -41 -55 -7 -56 -7 0 -72 c-1 -39 -5 -90 -9 -113 l-8 -42 54
-12 c54 -12 55 -13 49 -43 -4 -17 -22 -64 -41 -104 l-35 -73 -51 28 -51 28
-16 -25 c-9 -14 -42 -51 -74 -84 l-57 -58 34 -43 c33 -40 34 -43 17 -58 -9 -8
-52 -34 -94 -57 l-78 -42 -9 24 c-5 13 -27 69 -49 126 l-41 102 52 26 c75 39
172 140 207 216 52 116 60 235 23 346 -8 24 -12 46 -9 49 12 12 212 101 228
102 13 1 22 -16 36 -61z m-821 -251 c23 -39 59 -103 81 -140 l39 -69 79 141
79 141 88 0 c48 0 87 -2 87 -4 0 -4 -328 -567 -334 -573 -3 -3 -336 564 -336
572 0 3 39 5 88 5 l87 0 42 -73z"/>
<path d="M846 1461 c-26 -29 -18 -81 16 -100 59 -33 120 28 87 87 -19 35 -76
43 -103 13z"/>
<path d="M1306 1458 c-53 -76 52 -151 107 -77 33 45 1 99 -58 99 -24 0 -39 -7
-49 -22z"/>
<path d="M1822 1809 c-24 -23 -41 -44 -38 -47 3 -3 14 2 24 11 10 10 24 17 30
17 17 0 24 -34 13 -63 -7 -17 -7 -28 -1 -32 6 -4 13 7 16 24 5 23 12 31 33 33
17 2 27 10 29 24 3 22 -33 74 -51 74 -7 0 -31 -19 -55 -41z m84 -4 c27 -42 0
-61 -37 -24 -16 16 -18 23 -8 35 16 20 26 18 45 -11z"/>
<path d="M294 1723 c3 -29 3 -53 0 -53 -3 0 -16 7 -29 16 -14 9 -25 12 -25 7
0 -6 25 -27 55 -47 54 -36 74 -36 35 -1 -30 27 -25 35 25 35 25 0 45 5 45 10
0 6 -20 10 -45 10 -41 0 -45 2 -51 28 -11 49 -14 48 -10 -5z"/>
<path d="M2000 1553 c-30 -14 -50 -28 -43 -30 11 -4 113 43 113 52 0 8 -13 4
-70 -22z"/>
<path d="M130 1469 c0 -8 21 -28 46 -45 l45 -31 -60 -7 c-91 -10 -84 -17 57
-61 6 -3 12 -1 12 4 0 4 -21 15 -47 23 l-48 16 40 2 c22 1 49 5 59 9 17 7 14
12 -27 40 -52 35 -59 45 -24 32 42 -15 77 -21 77 -13 0 4 -24 14 -52 22 -29 7
-59 15 -65 17 -7 3 -13 -1 -13 -8z"/>
<path d="M141 1118 c-5 -13 -10 -32 -12 -43 -3 -11 -11 -20 -19 -20 -19 0 -25
41 -10 61 9 9 9 14 2 14 -21 0 -35 -41 -23 -67 17 -36 51 -27 66 17 6 19 19
36 27 38 23 5 31 -28 12 -55 -19 -30 -13 -40 10 -18 19 19 21 66 4 83 -19 19
-48 14 -57 -10z"/>
<path d="M2040 1084 c0 -27 4 -43 10 -39 6 3 10 18 10 33 l0 26 34 -33 c44
-42 71 -39 71 8 0 22 -6 36 -15 39 -12 4 -13 2 -2 -9 6 -7 12 -21 12 -30 0
-32 -28 -27 -66 12 -21 21 -42 39 -46 39 -4 0 -8 -21 -8 -46z"/>
<path d="M364 476 l-49 -46 33 -30 c27 -25 36 -28 52 -20 11 6 20 17 20 25 0
7 9 17 20 20 27 9 26 46 -4 74 l-23 22 -49 -45z m80 -27 c-8 -14 -30 -11 -44
6 -10 12 -10 18 1 31 12 15 15 14 31 -6 10 -12 15 -26 12 -31z m-37 -43 c-9
-22 -30 -20 -52 4 -18 20 -18 21 1 35 17 12 21 12 38 -5 11 -10 16 -25 13 -34z"/>
<path d="M1787 472 c-38 -42 -5 -112 52 -112 20 0 36 9 50 26 25 32 26 47 6
64 -13 10 -19 9 -35 -5 -23 -21 -18 -34 5 -15 12 10 16 9 21 -4 8 -20 -22 -56
-46 -56 -19 0 -60 40 -60 58 0 20 39 52 55 46 8 -4 15 -1 15 5 0 18 -45 13
-63 -7z"/>
<path d="M567 298 c-32 -24 -53 -44 -47 -46 6 -2 17 2 25 8 24 20 64 -11 58
-44 -3 -14 -1 -26 4 -26 12 0 33 132 24 142 -4 5 -33 -11 -64 -34z m53 5 c0
-10 -4 -24 -9 -32 -8 -12 -12 -12 -25 -2 -14 12 -13 15 7 32 27 23 27 23 27 2z"/>
<path d="M1620 328 c0 -7 9 -26 20 -43 11 -16 20 -33 20 -37 0 -4 -25 4 -55
19 -30 15 -57 24 -60 21 -3 -3 9 -31 27 -62 18 -31 34 -52 36 -46 2 6 -6 26
-17 46 -12 19 -21 37 -21 39 0 3 25 -7 55 -22 30 -15 57 -24 60 -21 6 6 -52
118 -61 118 -2 0 -4 -6 -4 -12z"/>
<path d="M787 188 c-18 -62 -16 -94 3 -42 25 71 26 71 44 6 9 -34 21 -62 25
-62 7 0 41 102 41 124 0 21 -19 -9 -24 -39 -10 -52 -23 -51 -36 5 -18 76 -32
79 -53 8z"/>
<path d="M1393 204 c3 -18 9 -43 12 -57 5 -20 2 -28 -15 -37 -33 -18 -46 -6
-60 49 -7 28 -16 51 -21 51 -10 0 -3 -39 17 -87 10 -27 19 -33 42 -33 43 0 56
21 48 77 -3 26 -11 52 -17 58 -9 7 -10 2 -6 -21z"/>
<path d="M1050 125 l0 -65 31 0 c44 0 66 15 74 50 11 48 -16 80 -65 80 l-40 0
0 -65z m78 43 c7 -7 12 -22 12 -34 0 -42 -11 -54 -47 -54 l-35 0 5 48 c3 26 6
48 6 50 2 8 49 0 59 -10z"/>
</g>
</svg>
